# xmcd
#
# Track frame offsets:
#	150
#	16743
#	31261
#	41673
#	55421
#	69976
#	81020
#	95285
#	109225
#	123038
#	136614
#	149931
#	161319
#	170748
#	179899
#
# Disc length: 2504 seconds
#
# Revision: 0
# Processed by: cddbd v1.5.2PL0 Copyright (c) Steve Scherf et al.
# Submitted via: audiograbber 1.83.01
#
DISCID=c909c60f
DTITLE=Various Artist - Buenos Aires Tango - Grandes Orquestas
DYEAR=2008
DGENRE=Tango
TTITLE0=La Cumparsita - Juan D'Arienzo Y Su Orquesta
TTITLE1=Margo - Anibal Troilo con Alberto Marino
TTITLE2=Y Volvamos A Querernos - Osvaldo Pugliese Con Alberto Morán
TTITLE3=Sentimiento Gaucho - Francisco Canaro Y Su Orquesta
TTITLE4=Pero Yo Sé - Osvaldo Fresedo Con Héctor Pacheco
TTITLE5=Melenita De Oro - Alfredo D'Angelis Con Floreal Ruiz
TTITLE6=Guardia Nueva - Astor Piazzolla Y Su Orquesta
TTITLE7=Porteño Y Bailarín - Carlos Di Sarli Con Jorge Durán
TTITLE8=Cóbrate Y Dame El Vuelto - Miguel Calo Con Alberto Podestá
TTITLE9=Déjame Vivir Mi Vida - Héctor Varela Con Jorge Rolando
TTITLE10=Humillación - Rodolfo Biaggi Con Hugo Duval
TTITLE11=Laura - Alberto Di Paulo Y Su Orquesta
TTITLE12=El Clavelito - Enrique Rodriguez Con Chato Flores
TTITLE13=El Sueño Del Pibe - Ricardo Tanturi Con Enrique Campos
TTITLE14=No Te Quiero Más - Jorge Dragone Con Mario Bustos
EXTD=
EXTT0=
EXTT1=
EXTT2=
EXTT3=
EXTT4=
EXTT5=
EXTT6=
EXTT7=
EXTT8=
EXTT9=
EXTT10=
EXTT11=
EXTT12=
EXTT13=
EXTT14=
PLAYORDER=
